<svg xmlns="http://www.w3.org/2000/svg" viewBox="0 0 64 64">
<defs>
 <linearGradient id="g" x1="0" y1="0" x2="1" y2="1">
  <stop offset="0" stop-color="#22d3ee"/>
  <stop offset="0.5" stop-color="#3b82f6"/>
  <stop offset="1" stop-color="#a855f7"/>
 </linearGradient>
</defs>
<rect width="64" height="64" rx="14" fill="#0b1026"/>
<path d="M14 45V19c0-3 2-5 5-5h3c2 0 3 1 4 3l15 19V19c0-3 2-5 5-5h3c3 0 5 2 5 5v26c0 3-2 5-5 5h-3c-2 0-3-1-4-3L27 28v17c0 3-2 5-5 5h-3c-3 0-5-2-5-5z" fill="url(#g)"/>
<path d="M43 9c-7 0-12 4-12 9 0 4 3 7 6 8l-1 6 5-4h2c7 0 12-4 12-9S50 9 43 9z" fill="#8b5cf6"/>
<circle cx="39" cy="18" r="1.5" fill="white"/><circle cx="43" cy="18" r="1.5" fill="white"/><circle cx="47" cy="18" r="1.5" fill="white"/>
</svg>